<?xml version="1.0" encoding="UTF-8" standalone="no"?>
<!-- Created with Inkscape (http://www.inkscape.org/) -->

<svg
   width="164.1039mm"
   height="42.432873mm"
   viewBox="0 0 164.1039 42.432873"
   version="1.1"
   id="svg1"
   xml:space="preserve"
   xmlns="http://www.w3.org/2000/svg"
   xmlns:svg="http://www.w3.org/2000/svg"><defs
     id="defs1" /><g
     id="layer1"
     style="display:inline;fill:#ffffff"
     transform="translate(-28.222202,-74.898793)"><g
       style="display:inline;fill:none;stroke:#ffffff;stroke-width:2;stroke-linecap:round;stroke-linejoin:round;stroke-opacity:1"
       id="g1"
       transform="matrix(1.9007322,0,0,1.9007322,152.4107,72.998058)"><path
         d="m 20,10 c 0,4.993 -5.539,10.193 -7.399,11.799 a 1,1 0 0 1 -1.202,0 C 9.539,20.193 4,14.993 4,10 a 8,8 0 0 1 16,0"
         id="path1"
         style="fill:none;stroke:#ffffff;stroke-opacity:1" /><path
         id="circle1"
         d="m 15,10 a 3,3 0 0 1 -3,3 3,3 0 0 1 -3,-3 3,3 0 0 1 3,-3 3,3 0 0 1 3,3 z"
         style="fill:none;stroke:#ffffff;stroke-opacity:1" /></g><path
       style="font-size:96px;font-family:'Arial Rounded MT Bold';-inkscape-font-specification:'Arial Rounded MT Bold, ';white-space:pre;fill:#ffffff"
       d="m 130.82031,342.01736 35.29688,-42.23438 h -30.32813 q -3.1875,0 -4.82812,-1.40625 -1.59375,-1.40625 -1.59375,-3.70312 0,-2.39063 1.59375,-3.84375 1.64062,-1.5 4.82812,-1.5 h 39.09375 q 7.59375,0 7.59375,7.07812 0,3.375 -1.26562,5.39063 -1.26563,2.01562 -5.10938,6.51562 l -33,39.28125 h 36.375 q 3.23438,0 4.82813,1.35938 1.59375,1.3125 1.59375,3.70312 0,2.48438 -1.59375,3.9375 -1.59375,1.45313 -4.82813,1.45313 h -44.625 q -4.54687,0 -6.84375,-2.01563 -2.29687,-2.0625 -2.29687,-5.48437 0,-1.17188 0.375,-2.15625 0.375,-0.98438 0.98437,-1.82813 0.65625,-0.89062 1.78125,-2.20312 1.125,-1.35938 1.96875,-2.34375 z m 110.85938,-8.8125 q 0,5.71875 -1.78125,10.54687 -1.78125,4.82813 -5.15625,8.29688 -3.375,3.46875 -8.0625,5.34375 -4.6875,1.82812 -10.54688,1.82812 -5.8125,0 -10.45312,-1.875 -4.64063,-1.875 -8.0625,-5.34375 -3.375,-3.51562 -5.15625,-8.25 -1.73438,-4.78125 -1.73438,-10.54687 0,-5.8125 1.78125,-10.64063 1.78125,-4.82812 5.10938,-8.25 3.32812,-3.42187 8.0625,-5.25 4.73437,-1.875 10.45312,-1.875 5.8125,0 10.54688,1.875 4.73437,1.875 8.10937,5.34375 3.375,3.46875 5.10938,8.25 1.78125,4.78125 1.78125,10.54688 z m -12.84375,0 q 0,-7.82813 -3.46875,-12.1875 -3.42188,-4.35938 -9.23438,-4.35938 -3.75,0 -6.60937,1.96875 -2.85938,1.92188 -4.40625,5.71875 -1.54688,3.79688 -1.54688,8.85938 0,5.01562 1.5,8.76562 1.54688,3.75 4.35938,5.76563 2.85937,1.96875 6.70312,1.96875 5.8125,0 9.23438,-4.35938 3.46875,-4.40625 3.46875,-12.14062 z m 34.54687,-18.9375 v 1.54687 q 3.375,-4.45312 7.35938,-6.51562 4.03125,-2.10938 9.23437,-2.10938 5.0625,0 9.04688,2.20313 3.98437,2.20312 5.95312,6.23437 1.26563,2.34375 1.64063,5.0625 0.375,2.71875 0.375,6.9375 v 23.8125 q 0,3.84375 -1.78125,5.8125 -1.73438,1.96875 -4.54688,1.96875 -2.85937,0 -4.64062,-2.01562 -1.78125,-2.01563 -1.78125,-5.76563 v -21.32812 q 0,-6.32813 -1.78125,-9.65625 -1.73438,-3.375 -6.98438,-3.375 -3.42187,0 -6.23437,2.0625 -2.8125,2.01562 -4.125,5.57812 -0.9375,2.85938 -0.9375,10.6875 v 16.03125 q 0,3.89063 -1.82813,5.85938 -1.78125,1.92187 -4.64062,1.92187 -2.76563,0 -4.54688,-2.01562 -1.78125,-2.01563 -1.78125,-5.76563 v -36.98437 q 0,-3.65625 1.59375,-5.4375 1.59375,-1.82813 4.35938,-1.82813 1.6875,0 3.04687,0.79688 1.35938,0.79687 2.15625,2.39062 0.84375,1.59375 0.84375,3.89063 z m 94.26563,18.9375 q 0,5.71875 -1.78125,10.54687 -1.78125,4.82813 -5.15625,8.29688 -3.375,3.46875 -8.0625,5.34375 -4.6875,1.82812 -10.54688,1.82812 -5.8125,0 -10.45312,-1.875 -4.64063,-1.875 -8.0625,-5.34375 -3.375,-3.51562 -5.15625,-8.25 -1.73438,-4.78125 -1.73438,-10.54687 0,-5.8125 1.78125,-10.64063 1.78125,-4.82812 5.10938,-8.25 3.32812,-3.42187 8.0625,-5.25 4.73437,-1.875 10.45312,-1.875 5.8125,0 10.54688,1.875 4.73437,1.875 8.10937,5.34375 3.375,3.46875 5.10938,8.25 1.78125,4.78125 1.78125,10.54688 z m -12.84375,0 q 0,-7.82813 -3.46875,-12.1875 -3.42188,-4.35938 -9.23438,-4.35938 -3.75,0 -6.60937,1.96875 -2.85938,1.92188 -4.40625,5.71875 -1.54688,3.79688 -1.54688,8.85938 0,5.01562 1.5,8.76562 1.54688,3.75 4.35938,5.76563 2.85937,1.96875 6.70312,1.96875 5.8125,0 9.23438,-4.35938 3.46875,-4.40625 3.46875,-12.14062 z"
       id="text1"
       transform="matrix(0.52683383,0,0,0.52683383,-38.006574,-71.917828)"
       aria-label="Zono" /></g></svg>
